{
    "asset" : {
        "generator" : "Khronos glTF Blender I/O v1.1.45",
        "version" : "2.0"
    },
    "scene" : 0,
    "scenes" : [
        {
            "name" : "Scene",
            "nodes" : [
                0,
                1,
                2,
                3,
                4,
                5,
                6,
                7,
                8
            ]
        }
    ],
    "nodes" : [
        {
            "name" : "Light",
            "rotation" : [
                0.16907575726509094,
                0.7558803558349609,
                -0.27217137813568115,
                0.570947527885437
            ],
            "translation" : [
                6.475130558013916,
                4.798666477203369,
                7.463077545166016
            ]
        },
        {
            "name" : "Camera",
            "rotation" : [
                0.679424524307251,
                -0.0051223817281425,
                0.004743389785289764,
                0.7337121963500977
            ],
            "translation" : [
                -0.16461895406246185,
                1.6036770343780518,
                8.651529312133789
            ]
        },
        {
            "name" : "Area",
            "rotation" : [
                -0.08089036494493484,
                -0.32148805260658264,
                -0.38440704345703125,
                0.8615877032279968
            ],
            "scale" : [
                12.827180862426758,
                12.827180862426758,
                12.827180862426758
            ],
            "translation" : [
                12.517516136169434,
                10.073606491088867,
                11.66519546508789
            ]
        },
        {
            "mesh" : 0,
            "name" : "Cube",
            "rotation" : [
                -0.046421390026807785,
                -0.0022358139976859093,
                -0.021621180698275566,
                0.9986854195594788
            ],
            "scale" : [
                -0.059733279049396515,
                -0.11449938267469406,
                -0.11449938267469406
            ],
            "translation" : [
                1.54416823387146,
                0.587084174156189,
                -1.948648452758789
            ]
        },
        {
            "mesh" : 1,
            "name" : "Cube.001",
            "rotation" : [
                -0.047195542603731155,
                -0.003865873208269477,
                0.013081314973533154,
                0.9987925291061401
            ],
            "scale" : [
                -0.059733279049396515,
                -0.11449938267469406,
                -0.11449938267469406
            ],
            "translation" : [
                0.007216675207018852,
                0.9328771829605103,
                0.054942578077316284
            ]
        },
        {
            "mesh" : 2,
            "name" : "Cylinder",
            "rotation" : [
                -0.04166673123836517,
                -0.012668420560657978,
                -0.0005283530335873365,
                0.9990510940551758
            ],
            "scale" : [
                2.1572558879852295,
                2.9691343307495117,
                2.206151247024536
            ],
            "translation" : [
                0.0072172824293375015,
                0.8481689691543579,
                0.05494213104248047
            ]
        },
        {
            "mesh" : 3,
            "name" : "Cylinder.001",
            "rotation" : [
                -0.008645604364573956,
                0.042592305690050125,
                0.9985654950141907,
                -0.03127407655119896
            ],
            "scale" : [
                2.1572558879852295,
                2.9691343307495117,
                2.206151247024536
            ],
            "translation" : [
                -1.5546050071716309,
                0.7699846029281616,
                -0.19009636342525482
            ]
        },
        {
            "mesh" : 4,
            "name" : "frame",
            "rotation" : [
                0.4995948076248169,
                -0.4959625005722046,
                -0.5002619028091431,
                0.5041470527648926
            ],
            "translation" : [
                -0.008584214374423027,
                0.8274058103561401,
                -0.023164957761764526
            ]
        },
        {
            "mesh" : 5,
            "name" : "lens",
            "rotation" : [
                0.4995948076248169,
                -0.4959625005722046,
                -0.5002619028091431,
                0.5041470527648926
            ],
            "translation" : [
                0.0024415915831923485,
                0.8441485166549683,
                -0.06064292788505554
            ]
        }
    ],
    "materials" : [
        {
            "doubleSided" : true,
            "emissiveFactor" : [
                0,
                0,
                0
            ],
            "name" : "Material.006",
            "pbrMetallicRoughness" : {
                "baseColorFactor" : [
                    0.024091066792607307,
                    0.06161218881607056,
                    0.843467652797699,
                    1
                ],
                "metallicFactor" : 0.3499999940395355,
                "roughnessFactor" : 0.32500001788139343
            }
        },
        {
            "doubleSided" : true,
            "emissiveFactor" : [
                0,
                0,
                0
            ],
            "name" : "Material.005",
            "pbrMetallicRoughness" : {
                "baseColorFactor" : [
                    0.23301564157009125,
                    0.23301564157009125,
                    0.23301564157009125,
                    1
                ],
                "metallicFactor" : 1,
                "roughnessFactor" : 0
            }
        },
        {
            "doubleSided" : true,
            "emissiveFactor" : [
                0,
                0,
                0
            ],
            "name" : "Material.004",
            "pbrMetallicRoughness" : {
                "baseColorFactor" : [
                    0.42002442479133606,
                    0.42002442479133606,
                    0.42002442479133606,
                    1
                ],
                "metallicFactor" : 1,
                "roughnessFactor" : 0
            }
        },
        {
            "doubleSided" : true,
            "emissiveFactor" : [
                0,
                0,
                0
            ],
            "name" : "Material.002",
            "pbrMetallicRoughness" : {
                "baseColorFactor" : [
                    0,
                    0,
                    0,
                    1
                ],
                "metallicFactor" : 0.5,
                "roughnessFactor" : 0
            }
        },
        {
            "alphaMode" : "BLEND",
            "doubleSided" : true,
            "emissiveFactor" : [
                0,
                0,
                0
            ],
            "name" : "Material.001",
            "pbrMetallicRoughness" : {
                "baseColorFactor" : [
                    1,
                    1,
                    1,
                    0.15714287757873535
                ],
                "metallicFactor" : 0,
                "roughnessFactor" : 0
            }
        }
    ],
    "meshes" : [
        {
            "name" : "Cube.001",
            "primitives" : [
                {
                    "attributes" : {
                        "POSITION" : 0,
                        "NORMAL" : 1,
                        "TEXCOORD_0" : 2
                    },
                    "indices" : 3,
                    "material" : 0
                }
            ]
        },
        {
            "name" : "Cube.003",
            "primitives" : [
                {
                    "attributes" : {
                        "POSITION" : 4,
                        "NORMAL" : 5,
                        "TEXCOORD_0" : 6
                    },
                    "indices" : 3,
                    "material" : 0
                }
            ]
        },
        {
            "name" : "Cylinder",
            "primitives" : [
                {
                    "attributes" : {
                        "POSITION" : 7,
                        "NORMAL" : 8,
                        "TEXCOORD_0" : 9
                    },
                    "indices" : 10,
                    "material" : 1
                },
                {
                    "attributes" : {
                        "POSITION" : 11,
                        "NORMAL" : 12,
                        "TEXCOORD_0" : 13
                    },
                    "indices" : 14,
                    "material" : 2
                }
            ]
        },
        {
            "name" : "Cylinder.001",
            "primitives" : [
                {
                    "attributes" : {
                        "POSITION" : 15,
                        "NORMAL" : 16,
                        "TEXCOORD_0" : 17
                    },
                    "indices" : 10,
                    "material" : 1
                },
                {
                    "attributes" : {
                        "POSITION" : 18,
                        "NORMAL" : 19,
                        "TEXCOORD_0" : 20
                    },
                    "indices" : 14,
                    "material" : 2
                }
            ]
        },
        {
            "name" : "Circle",
            "primitives" : [
                {
                    "attributes" : {
                        "POSITION" : 21,
                        "NORMAL" : 22,
                        "TEXCOORD_0" : 23
                    },
                    "indices" : 24,
                    "material" : 3
                }
            ]
        },
        {
            "name" : "Circle.001",
            "primitives" : [
                {
                    "attributes" : {
                        "POSITION" : 25,
                        "NORMAL" : 26,
                        "TEXCOORD_0" : 27
                    },
                    "indices" : 28,
                    "material" : 4
                }
            ]
        }
    ],
    "accessors" : [
        {
            "bufferView" : 0,
            "componentType" : 5126,
            "count" : 578,
            "max" : [
                0.4165875017642975,
                4.132518291473389,
                11.72781753540039
            ],
            "min" : [
                -0.6869186162948608,
                -2.029695987701416,
                -15.91020393371582
            ],
            "type" : "VEC3"
        },
        {
            "bufferView" : 1,
            "componentType" : 5126,
            "count" : 578,
            "type" : "VEC3"
        },
        {
            "bufferView" : 2,
            "componentType" : 5126,
            "count" : 578,
            "type" : "VEC2"
        },
        {
            "bufferView" : 3,
            "componentType" : 5123,
            "count" : 3372,
            "type" : "SCALAR"
        },
        {
            "bufferView" : 4,
            "componentType" : 5126,
            "count" : 578,
            "max" : [
                27.094863891601562,
                5.418348789215088,
                28.958436965942383
            ],
            "min" : [
                25.991357803344727,
                -0.7438656091690063,
                1.3204154968261719
            ],
            "type" : "VEC3"
        },
        {
            "bufferView" : 5,
            "componentType" : 5126,
            "count" : 578,
            "type" : "VEC3"
        },
        {
            "bufferView" : 6,
            "componentType" : 5126,
            "count" : 578,
            "type" : "VEC2"
        },
        {
            "bufferView" : 7,
            "componentType" : 5126,
            "count" : 42,
            "max" : [
                0.7018192410469055,
                0.030580896884202957,
                -0.09821578115224838
            ],
            "min" : [
                0.6789938807487488,
                0.004580896347761154,
                -0.12221578508615494
            ],
            "type" : "VEC3"
        },
        {
            "bufferView" : 8,
            "componentType" : 5126,
            "count" : 42,
            "type" : "VEC3"
        },
        {
            "bufferView" : 9,
            "componentType" : 5126,
            "count" : 42,
            "type" : "VEC2"
        },
        {
            "bufferView" : 10,
            "componentType" : 5123,
            "count" : 108,
            "type" : "SCALAR"
        },
        {
            "bufferView" : 11,
            "componentType" : 5126,
            "count" : 38,
            "max" : [
                0.699023425579071,
                0.029791055247187614,
                -0.11723044514656067
            ],
            "min" : [
                0.6814965605735779,
                0.003525992389768362,
                -0.19566568732261658
            ],
            "type" : "VEC3"
        },
        {
            "bufferView" : 12,
            "componentType" : 5126,
            "count" : 38,
            "type" : "VEC3"
        },
        {
            "bufferView" : 13,
            "componentType" : 5126,
            "count" : 38,
            "type" : "VEC2"
        },
        {
            "bufferView" : 14,
            "componentType" : 5123,
            "count" : 60,
            "type" : "SCALAR"
        },
        {
            "bufferView" : 15,
            "componentType" : 5126,
            "count" : 42,
            "max" : [
                -0.0013529062271118164,
                -0.009361188858747482,
                0.042614974081516266
            ],
            "min" : [
                -0.024178266525268555,
                -0.035361189395189285,
                0.01861497014760971
            ],
            "type" : "VEC3"
        },
        {
            "bufferView" : 16,
            "componentType" : 5126,
            "count" : 42,
            "type" : "VEC3"
        },
        {
            "bufferView" : 17,
            "componentType" : 5126,
            "count" : 42,
            "type" : "VEC2"
        },
        {
            "bufferView" : 18,
            "componentType" : 5126,
            "count" : 38,
            "max" : [
                -0.004148721694946289,
                -0.010151030495762825,
                0.02360031008720398
            ],
            "min" : [
                -0.021675586700439453,
                -0.03641609102487564,
                -0.05483493208885193
            ],
            "type" : "VEC3"
        },
        {
            "bufferView" : 19,
            "componentType" : 5126,
            "count" : 38,
            "type" : "VEC3"
        },
        {
            "bufferView" : 20,
            "componentType" : 5126,
            "count" : 38,
            "type" : "VEC2"
        },
        {
            "bufferView" : 21,
            "componentType" : 5126,
            "count" : 1653,
            "max" : [
                0.7858277559280396,
                0.10872795432806015,
                1.6217809915542603
            ],
            "min" : [
                -0.22303378582000732,
                -0.12886720895767212,
                -1.6217809915542603
            ],
            "type" : "VEC3"
        },
        {
            "bufferView" : 22,
            "componentType" : 5126,
            "count" : 1653,
            "type" : "VEC3"
        },
        {
            "bufferView" : 23,
            "componentType" : 5126,
            "count" : 1653,
            "type" : "VEC2"
        },
        {
            "bufferView" : 24,
            "componentType" : 5123,
            "count" : 7104,
            "type" : "SCALAR"
        },
        {
            "bufferView" : 25,
            "componentType" : 5126,
            "count" : 1818,
            "max" : [
                0.7414411306381226,
                0.1097288504242897,
                1.4837194681167603
            ],
            "min" : [
                -0.1511257290840149,
                -0.022090613842010498,
                -1.4837194681167603
            ],
            "type" : "VEC3"
        },
        {
            "bufferView" : 26,
            "componentType" : 5126,
            "count" : 1818,
            "type" : "VEC3"
        },
        {
            "bufferView" : 27,
            "componentType" : 5126,
            "count" : 1818,
            "type" : "VEC2"
        },
        {
            "bufferView" : 28,
            "componentType" : 5123,
            "count" : 9984,
            "type" : "SCALAR"
        }
    ],
    "bufferViews" : [
        {
            "buffer" : 0,
            "byteLength" : 6936,
            "byteOffset" : 0
        },
        {
            "buffer" : 0,
            "byteLength" : 6936,
            "byteOffset" : 6936
        },
        {
            "buffer" : 0,
            "byteLength" : 4624,
            "byteOffset" : 13872
        },
        {
            "buffer" : 0,
            "byteLength" : 6744,
            "byteOffset" : 18496
        },
        {
            "buffer" : 0,
            "byteLength" : 6936,
            "byteOffset" : 25240
        },
        {
            "buffer" : 0,
            "byteLength" : 6936,
            "byteOffset" : 32176
        },
        {
            "buffer" : 0,
            "byteLength" : 4624,
            "byteOffset" : 39112
        },
        {
            "buffer" : 0,
            "byteLength" : 504,
            "byteOffset" : 43736
        },
        {
            "buffer" : 0,
            "byteLength" : 504,
            "byteOffset" : 44240
        },
        {
            "buffer" : 0,
            "byteLength" : 336,
            "byteOffset" : 44744
        },
        {
            "buffer" : 0,
            "byteLength" : 216,
            "byteOffset" : 45080
        },
        {
            "buffer" : 0,
            "byteLength" : 456,
            "byteOffset" : 45296
        },
        {
            "buffer" : 0,
            "byteLength" : 456,
            "byteOffset" : 45752
        },
        {
            "buffer" : 0,
            "byteLength" : 304,
            "byteOffset" : 46208
        },
        {
            "buffer" : 0,
            "byteLength" : 120,
            "byteOffset" : 46512
        },
        {
            "buffer" : 0,
            "byteLength" : 504,
            "byteOffset" : 46632
        },
        {
            "buffer" : 0,
            "byteLength" : 504,
            "byteOffset" : 47136
        },
        {
            "buffer" : 0,
            "byteLength" : 336,
            "byteOffset" : 47640
        },
        {
            "buffer" : 0,
            "byteLength" : 456,
            "byteOffset" : 47976
        },
        {
            "buffer" : 0,
            "byteLength" : 456,
            "byteOffset" : 48432
        },
        {
            "buffer" : 0,
            "byteLength" : 304,
            "byteOffset" : 48888
        },
        {
            "buffer" : 0,
            "byteLength" : 19836,
            "byteOffset" : 49192
        },
        {
            "buffer" : 0,
            "byteLength" : 19836,
            "byteOffset" : 69028
        },
        {
            "buffer" : 0,
            "byteLength" : 13224,
            "byteOffset" : 88864
        },
        {
            "buffer" : 0,
            "byteLength" : 14208,
            "byteOffset" : 102088
        },
        {
            "buffer" : 0,
            "byteLength" : 21816,
            "byteOffset" : 116296
        },
        {
            "buffer" : 0,
            "byteLength" : 21816,
            "byteOffset" : 138112
        },
        {
            "buffer" : 0,
            "byteLength" : 14544,
            "byteOffset" : 159928
        },
        {
            "buffer" : 0,
            "byteLength" : 19968,
            "byteOffset" : 174472
        }
    ],
    "buffers" : [
        {
            "byteLength" : 194440,
            "uri" : "data:application/octet-stream;base64,"
        }
    ]
}
